<?xml version="1.0" encoding="UTF-8" standalone="no"?>
<!-- Created with Inkscape (http://www.inkscape.org/) -->

<svg
   width="45.545559mm"
   height="45.936382mm"
   viewBox="0 0 45.545559 45.936382"
   version="1.1"
   id="svg5"
   inkscape:version="1.1 (c4e8f9ed74, 2021-05-24)"
   sodipodi:docname="aif-icon.svg"
   xmlns:inkscape="http://www.inkscape.org/namespaces/inkscape"
   xmlns:sodipodi="http://sodipodi.sourceforge.net/DTD/sodipodi-0.dtd"
   xmlns="http://www.w3.org/2000/svg"
   xmlns:svg="http://www.w3.org/2000/svg">
  <sodipodi:namedview
     id="namedview7"
     pagecolor="#ffffff"
     bordercolor="#666666"
     borderopacity="1.0"
     inkscape:pageshadow="2"
     inkscape:pageopacity="0.0"
     inkscape:pagecheckerboard="0"
     inkscape:document-units="mm"
     showgrid="false"
     inkscape:snap-global="false"
     showguides="false"
     inkscape:guide-bbox="true"
     fit-margin-top="0"
     fit-margin-left="0"
     fit-margin-right="0"
     fit-margin-bottom="0"
     inkscape:zoom="1.7589258"
     inkscape:cx="173.68556"
     inkscape:cy="123.93928"
     inkscape:window-width="1366"
     inkscape:window-height="717"
     inkscape:window-x="0"
     inkscape:window-y="0"
     inkscape:window-maximized="1"
     inkscape:current-layer="g67344" />
  <defs
     id="defs2" />
  <g
     inkscape:label="Слой 1"
     inkscape:groupmode="layer"
     id="layer1"
     transform="translate(-11.93138,-6.4401217)">
    <g
       id="g67344"
       transform="translate(-82.527089,-1.3698668)">
      <path
         id="path52788"
         style="fill:none;stroke:#000000;stroke-width:0.250252px;stroke-linecap:butt;stroke-linejoin:miter;stroke-opacity:1"
         d="m 122.92029,45.610031 0.74084,-2.148599 m -11.53468,-0.299495 0.71438,2.233466 m -0.70861,-25.637129 0.0425,1.353162 m 7.20535,13.852386 v -2.80298 m -2.94973,2.662314 -0.57826,-2.563426 m -12.50285,2.390673 c 0,0 9.58046,-5.594326 13.81625,-5.560094 1.87709,-0.458081 12.62504,1.427841 12.62504,1.427841 M 94.557095,52.00937 112.15141,43.151176 c -0.47932,-11.669494 5.28899,-11.190504 5.28899,-11.190504 0,0 5.39713,-1.691159 6.20986,11.444707 l 16.22789,4.570305 m -45.286527,5.55204 0.143981,-3.962003 16.630066,-28.821535 5.20207,2.860601 -4.39779,-3.888773 5.11216,-11.6256645 18.00893,32.2077185 -0.34403,1.728735 1.99539,1.423664 2.93575,4.525217 -0.10201,5.038487 c -3.68848,-2.226458 -9.10997,-5.956401 -16.94077,-7.481116 0,0 0.96725,-10.760791 -4.90426,-10.900616 -6.53664,0.07627 -5.12752,8.854301 -4.96697,10.72286 -4.22633,-0.09564 -12.75183,5.005408 -18.372517,8.172425 z"
         sodipodi:nodetypes="ccccccccccccccccccccccccccccccccc" />
      <path
         style="opacity:0.99;fill:#0234ae;fill-opacity:1;stroke:none;stroke-width:0.0126047;stroke-miterlimit:4;stroke-dasharray:none"
         d="m 114.75587,22.423759 c -0.14404,-0.06946 -0.49561,-0.254973 -0.86794,-0.461733 -0.34309,-0.190516 -0.75288,-0.417745 -0.91066,-0.504956 -0.15777,-0.08722 -0.62382,-0.377125 -0.62382,-0.377125 -10e-4,-0.01631 -0.003,-0.03392 -0.0146,-0.42055 -0.008,-0.254161 -0.0112,-0.524378 -0.0108,-0.563308 0.0163,0.01268 0.40194,0.344113 0.51718,0.447347 0.11521,0.103235 0.33649,0.296062 0.49177,0.428515 0.76782,0.655001 1.92738,1.676995 1.891,1.68208 -0.15898,-0.07122 -0.33237,-0.146467 -0.47212,-0.23027 z"
         id="path26102"
         sodipodi:nodetypes="csssccsccc" />
      <path
         style="opacity:0.99;fill:#039fe9;fill-opacity:1;stroke:none;stroke-width:0.174563;stroke-miterlimit:4;stroke-dasharray:none"
         d="m 104.32103,33.289927 c 0.95877,-1.80831 7.04919,-12.394604 7.15072,-12.391414 0.071,0.0022 1.30903,0.805754 2.63011,1.533039 2.11698,1.165442 2.29845,1.354916 2.46294,1.190419 0.11572,-0.11572 0.12057,-0.15405 0.0455,-0.219488 -3.44677,-3.003605 -4.14061,-3.542905 -4.26872,-3.749461 0.33438,-0.875679 4.89983,-11.2131778 4.9544,-11.2152085 0.0675,-0.00251 12.22888,21.8006985 12.18516,21.8456855 -0.0123,0.01267 -1.39782,-0.222015 -2.64948,-0.419172 -4.89624,-0.771241 -6.33419,-0.934677 -8.64494,-0.927007 -1.97232,0.0065 -2.34707,0.0432 -3.42777,0.335222 -2.23607,0.604229 -5.58423,2.072005 -8.9551,3.849523 -0.86761,0.457502 -1.9502,1.045599 -1.97161,1.045599 -0.0214,0 0.36536,-0.64489 0.48882,-0.877737 z"
         id="path28579"
         sodipodi:nodetypes="ssssccssssssss" />
      <path
         style="opacity:0.99;fill:#025e94;fill-opacity:1;stroke:none;stroke-width:0.338235;stroke-miterlimit:4;stroke-dasharray:none"
         d="m 103.44082,34.674476 c 3.67312,-1.97863 6.7587,-3.482927 10.33157,-4.76785 1.82634,-0.704347 4.11964,-0.772141 4.90028,-0.72568 1.8738,-0.126423 11.06975,1.475211 11.06975,1.475211 l 5.38358,9.662199 -0.35758,1.804879 2.09892,1.490525 2.68588,4.123161 -15.7768,-4.422609 -0.16905,-2.345332 c -0.11314,-1.569611 -0.70007,-4.02182 -1.25483,-5.326907 -0.74138,-1.744096 -1.24862,-2.186993 -1.83444,-2.890131 -1.02811,-0.859139 -2.05592,-1.029456 -3.13863,-0.947967 -1.28582,0.03777 -2.49093,0.724635 -3.0267,1.439862 -1.19224,1.126374 -1.69093,2.977295 -2.01216,4.230344 -0.38822,1.824796 -0.34998,5.605872 -0.34998,5.605872 l -17.262388,8.728339 c 0,0 0.07569,-1.189862 0.110856,-2.227971 2.86575,-5.01098 5.732082,-9.897352 8.601722,-14.905945 z"
         id="path34763"
         sodipodi:nodetypes="cccccccccsscccccccc" />
      <path
         style="opacity:0.99;fill:#00152d;fill-opacity:1;stroke:none;stroke-width:0.052425;stroke-miterlimit:4;stroke-dasharray:none"
         d="m 118.99621,34.677837 c -0.62538,-0.141155 -1.4765,-0.16703 -2.21226,-0.01282 -0.13023,0.0273 -0.36497,0.0616 -0.36497,0.05769 0,-0.0065 -0.50973,-2.399087 -0.53332,-2.510781 0.27053,-0.123626 0.61217,-0.144631 0.82886,-0.182213 0.2037,-0.05423 0.54405,-0.09311 0.73837,-0.05403 0.13605,-0.06345 0.64394,-0.138369 0.76834,-0.08939 0.15254,-0.03 0.78248,0.133792 0.86253,0.174609 l 0.34279,0.117238 0.0133,1.302526 c 0.007,0.699417 0.007,1.234844 0.009,1.32208 -0.14059,-0.05724 -0.32247,-0.08179 -0.45387,-0.124898 z"
         id="path48964"
         sodipodi:nodetypes="cssccccccsccc" />
      <path
         style="opacity:0.99;fill:#004b98;fill-opacity:1;stroke:none;stroke-width:0.0729948;stroke-miterlimit:4;stroke-dasharray:none"
         d="m 112.47532,43.740128 -0.19403,-0.627346 v -1.18191 c 0,-4.056721 0.79106,-6.939483 2.33495,-8.508973 0.4203,-0.427273 1.06692,-0.909084 1.13229,-0.843709 0.0104,0.01037 0.11537,0.446842 0.23334,0.96995 0.11797,0.523107 0.22649,1.002837 0.24117,1.066061 0.0221,0.09524 -0.007,0.125984 -0.17172,0.17924 -0.31559,0.102248 -0.80644,0.360598 -1.15583,0.608356 -1.1764,0.834194 -1.96372,2.480249 -2.21362,4.628034 -0.0964,0.828302 -0.11026,2.719334 -0.0269,3.669149 0.0303,0.34531 0.0459,0.636984 0.0348,0.648165 -0.0112,0.01119 -0.10764,-0.261977 -0.21436,-0.607017 z"
         id="path59670" />
      <path
         style="opacity:0.99;fill:#004b98;fill-opacity:1;stroke:none;stroke-width:0.0729948;stroke-miterlimit:4;stroke-dasharray:none"
         d="m 123.02207,43.648778 c -0.002,-3.083534 -0.56126,-5.578332 -1.61453,-7.196106 -0.31889,-0.489799 -1.10076,-1.237001 -1.51982,-1.452436 l -0.35697,-0.183512 -1.9e-4,-1.179176 c -1.9e-4,-1.107186 0.005,-1.176065 0.0924,-1.128234 0.20115,0.110657 0.47934,0.340813 0.82319,0.681067 1.58482,1.568235 2.64263,4.913365 2.99904,9.483915 l 0.0598,0.767239 -0.21938,0.634955 c -0.12066,0.349226 -0.2292,0.644877 -0.2412,0.657003 -0.012,0.01212 -0.0221,-0.475996 -0.0224,-1.084715 z"
         id="path59709" />
      <path
         style="opacity:0.99;fill:#001e74;fill-opacity:1;stroke:none;stroke-width:0.111445;stroke-miterlimit:4;stroke-dasharray:none"
         d="m 132.91084,48.911729 c -2.84392,-1.383273 -6.06553,-2.571787 -8.34292,-3.123533 -0.75959,-0.184029 -1.44201,-0.31346 -1.45862,-0.32861 -0.0638,-0.05813 0.5974,-1.765782 0.62383,-1.896584 0.0571,-0.0011 3.75887,1.010936 8.06805,2.228546 l 7.94999,2.246365 -0.0188,1.351079 c -0.0193,1.38802 -0.0786,3.310814 -0.0856,3.387344 -0.003,0.02878 -0.71096,-0.36931 -1.34432,-0.794895 -2.07866,-1.233176 -3.68102,-2.230139 -5.39167,-3.069712 z"
         id="path63882"
         sodipodi:nodetypes="csscscsscc" />
      <path
         style="opacity:0.99;fill:#001b79;fill-opacity:1;stroke:none;stroke-width:0.111445;stroke-miterlimit:4;stroke-dasharray:none"
         d="m 94.731759,51.996107 c 0.26248,-0.124958 0.881656,-0.425511 4.247579,-2.059406 1.521122,-0.738389 4.484692,-2.287992 7.230982,-3.678457 2.97129,-1.504389 5.68106,-2.813161 5.84847,-2.892277 0.0266,-0.01257 0.15214,0.436721 0.28477,0.921912 l 0.34579,0.930775 -1.1312,0.124431 c -0.92054,0.101261 -1.87881,0.460621 -3.00074,0.862144 -1.11711,0.399802 -2.45562,1.015813 -3.98368,1.754159 -1.35239,0.653465 -2.84053,1.471342 -4.646583,2.447107 -0.894509,0.483283 -1.807858,0.97222 -2.854547,1.564325 -1.152996,0.652243 -2.310734,1.329516 -2.346291,1.344324 0.02212,-0.425722 -0.02281,-0.909116 0.0054,-1.319037 z"
         id="path63921"
         sodipodi:nodetypes="csssscssssscc" />
    </g>
  </g>
</svg>
