<?xml version="1.0" encoding="UTF-8" standalone="no"?>
<svg
   viewBox="0 0 256 256"
   version="1.1"
   id="svg4"
   sodipodi:docname="aif-icon.svg"
   width="256"
   height="256"
   inkscape:version="1.2.1 (9c6d41e410, 2022-07-14, custom)"
   xmlns:inkscape="http://www.inkscape.org/namespaces/inkscape"
   xmlns:sodipodi="http://sodipodi.sourceforge.net/DTD/sodipodi-0.dtd"
   xmlns="http://www.w3.org/2000/svg"
   xmlns:svg="http://www.w3.org/2000/svg">
  <defs
     id="defs8" />
  <sodipodi:namedview
     id="namedview6"
     pagecolor="#ffffff"
     bordercolor="#666666"
     borderopacity="1.0"
     inkscape:showpageshadow="2"
     inkscape:pageopacity="0.0"
     inkscape:pagecheckerboard="0"
     inkscape:deskcolor="#d1d1d1"
     showgrid="false"
     inkscape:zoom="1.8961164"
     inkscape:cx="112.86227"
     inkscape:cy="129.21148"
     inkscape:window-width="1366"
     inkscape:window-height="717"
     inkscape:window-x="0"
     inkscape:window-y="0"
     inkscape:window-maximized="1"
     inkscape:current-layer="svg4" />
  <path
     fill-rule="evenodd"
     d="m 128,256 a 128,128 0 1 1 0,-256 128,128 0 0 1 0,256 z m 0,-230.4 a 102.4,102.4 0 1 0 0,204.8 51.2,51.2 0 1 1 0,-102.4 51.2,51.2 0 1 0 0,-102.4 z m 0,166.4 a 12.8,12.8 0 1 0 0,-25.6 12.8,12.8 0 0 0 0,25.6 z m 0,-102.4 a 12.8,12.8 0 1 1 0,-25.6 12.8,12.8 0 0 1 0,25.6 z"
     id="path2"
     style="stroke-width:12.8" />
</svg>
