<?xml version="1.0" encoding="UTF-8" standalone="no"?>
<svg
   viewBox="0 0 256 256"
   version="1.1"
   id="svg4"
   sodipodi:docname="aif-icon.svg"
   width="256"
   height="256"
   inkscape:version="1.2.1 (9c6d41e410, 2022-07-14, custom)"
   xmlns:inkscape="http://www.inkscape.org/namespaces/inkscape"
   xmlns:sodipodi="http://sodipodi.sourceforge.net/DTD/sodipodi-0.dtd"
   xmlns="http://www.w3.org/2000/svg"
   xmlns:svg="http://www.w3.org/2000/svg">
  <defs
     id="defs8" />
  <sodipodi:namedview
     id="namedview6"
     pagecolor="#ffffff"
     bordercolor="#666666"
     borderopacity="1.0"
     inkscape:showpageshadow="2"
     inkscape:pageopacity="0.0"
     inkscape:pagecheckerboard="0"
     inkscape:deskcolor="#d1d1d1"
     showgrid="false"
     inkscape:zoom="1.8961164"
     inkscape:cx="112.86227"
     inkscape:cy="129.21148"
     inkscape:window-width="1366"
     inkscape:window-height="717"
     inkscape:window-x="0"
     inkscape:window-y="0"
     inkscape:window-maximized="1"
     inkscape:current-layer="svg4" />
  <path
     fill-rule="evenodd"
     d="m 128,256 a 128,128 0 1 1 0,-256 128,128 0 0 1 0,256 z m 0,-230.4 a 102.4,102.4 0 1 0 0,204.8 51.2,51.2 0 1 1 0,-102.4 51.2,51.2 0 1 0 0,-102.4 z m 0,166.4 a 12.8,12.8 0 1 0 0,-25.6 12.8,12.8 0 0 0 0,25.6 z m 0,-102.4 a 12.8,12.8 0 1 1 0,-25.6 12.8,12.8 0 0 1 0,25.6 z"
     id="path2"
     style="stroke-width:12.8" />
  <path
     style="opacity:0.99;fill:#ffffff;stroke:#ffffff;stroke-width:0.528224;stroke-linecap:round"
     d="M 108.06723,228.12236 C 78.252358,221.832 53.274545,203.56805 38.78194,177.46045 12.114005,129.4197 28.196574,69.404143 75.472761,40.540776 84.822609,34.832445 97.247764,30.04191 108.90682,27.650227 c 7.72488,-1.584646 22.78188,-1.992725 28.76845,-0.779691 19.0952,3.869182 34.45756,18.305445 39.63223,37.243055 1.70398,6.236038 1.70753,19.256011 0.007,25.429319 -5.05571,18.35257 -19.51426,32.40805 -37.85299,36.79775 -2.33935,0.55996 -7.91654,1.24431 -12.39376,1.52078 -9.59162,0.59227 -14.48842,1.73247 -21.24832,4.94758 -14.301526,6.80202 -24.573669,19.69097 -28.118399,35.2815 -1.351616,5.94472 -1.221735,17.32437 0.266181,23.32175 1.257824,5.06995 4.73346,12.92989 7.487747,16.93312 5.944081,8.63943 15.598571,15.93912 25.825201,19.52625 4.13391,1.45003 2.92044,1.54472 -3.21285,0.25072 z M 133.55338,88.633688 c 2.51726,-1.19452 5.11948,-3.832496 6.27404,-6.360258 1.28657,-2.816784 1.28794,-8.253443 0.003,-11.075269 -2.34422,-5.147223 -8.60118,-8.297933 -14.25062,-7.175948 -13.44978,2.671139 -14.26099,21.127085 -1.11806,25.437047 1.93802,0.635536 6.97704,0.177974 9.09186,-0.825572 z"
     id="path319" />
  <path
     style="opacity:0.99;fill:#ffffff;stroke:#ffffff;stroke-width:0.528224;stroke-linecap:round"
     d="m 123.93754,191.01815 c -2.81498,-0.88727 -7.03602,-5.39305 -7.87683,-8.40818 -1.42914,-5.12486 0.61779,-10.6311 5.13134,-13.80334 1.77778,-1.24948 2.93392,-1.61839 5.60484,-1.78846 4.18239,-0.26632 6.68419,0.52976 9.42207,2.99813 2.77968,2.50604 4.0417,5.36326 4.0562,9.18327 0.0323,8.50404 -8.12708,14.4065 -16.33762,11.81858 z"
     id="path321" />
</svg>
