<?xml version="1.0" encoding="UTF-8" standalone="no"?>
<!-- Created with Inkscape (http://www.inkscape.org/) -->

<svg
   width="134.29608mm"
   height="62.653732mm"
   viewBox="0 0 134.29608 62.653732"
   version="1.1"
   id="svg5"
   inkscape:version="1.1 (c4e8f9ed74, 2021-05-24)"
   sodipodi:docname="flashdrive.svg"
   xmlns:inkscape="http://www.inkscape.org/namespaces/inkscape"
   xmlns:sodipodi="http://sodipodi.sourceforge.net/DTD/sodipodi-0.dtd"
   xmlns="http://www.w3.org/2000/svg"
   xmlns:svg="http://www.w3.org/2000/svg">
  <sodipodi:namedview
     id="namedview7"
     pagecolor="#ffffff"
     bordercolor="#666666"
     borderopacity="1.0"
     inkscape:pageshadow="2"
     inkscape:pageopacity="0.0"
     inkscape:pagecheckerboard="0"
     inkscape:document-units="mm"
     showgrid="false"
     fit-margin-top="0"
     fit-margin-left="0"
     fit-margin-right="0"
     fit-margin-bottom="0"
     inkscape:zoom="0.64642653"
     inkscape:cx="342.65302"
     inkscape:cy="153.14965"
     inkscape:window-width="1366"
     inkscape:window-height="717"
     inkscape:window-x="0"
     inkscape:window-y="0"
     inkscape:window-maximized="1"
     inkscape:current-layer="layer1" />
  <defs
     id="defs2" />
  <g
     inkscape:label="flashdrive"
     inkscape:groupmode="layer"
     id="layer1"
     transform="translate(-13.632292,-49.125768)">
    <g
       id="g1098">
      <g
         id="g618">
        <path
           style="fill:#d0d0d0;stroke-width:0.264583"
           d="m 51.533852,111.62378 c 0.181902,-0.0734 0.479557,-0.0734 0.661459,0 0.181901,0.0734 0.03307,0.13345 -0.33073,0.13345 -0.363801,0 -0.51263,-0.0601 -0.330729,-0.13345 z m -0.261497,-11.1244 c 0.329117,-0.0633 0.805366,-0.0609 1.058332,0.005 0.252965,0.0662 -0.01633,0.118 -0.598398,0.11507 -0.582083,-0.003 -0.789053,-0.0571 -0.459935,-0.12041 z m 35.467615,0.006 c 0.190995,-0.0764 0.419201,-0.067 0.50712,0.0209 0.08792,0.0879 -0.06835,0.15045 -0.347267,0.13896 -0.308226,-0.0127 -0.370919,-0.0754 -0.159853,-0.15985 z m 53.76002,-4.978647 c 0.34178,-0.363802 0.68094,-0.661458 0.7537,-0.661458 0.0728,0 -0.14734,0.297656 -0.48911,0.661458 -0.34178,0.363802 -0.68094,0.661458 -0.7537,0.661458 -0.0728,0 0.14734,-0.297656 0.48911,-0.661458 z M 52.079555,90.980769 c 0.190995,-0.07643 0.419199,-0.06703 0.507119,0.02087 0.08792,0.08792 -0.06835,0.150453 -0.347265,0.138965 -0.308226,-0.0127 -0.370919,-0.07539 -0.159853,-0.159851 z m 41.589191,0.08084 c 0,-0.05494 0.208359,-0.2633 0.46302,-0.463021 0.419645,-0.329107 0.429005,-0.319749 0.0999,0.0999 -0.345643,0.44073 -0.562916,0.580888 -0.562916,0.363125 z m 36.909374,-2.01677 c 0.26339,-0.291042 0.53842,-0.529167 0.61118,-0.529167 0.0728,0 -0.0832,0.238125 -0.3466,0.529167 -0.26339,0.291041 -0.53842,0.529166 -0.61118,0.529166 -0.0728,0 0.0832,-0.238125 0.3466,-0.529166 z m 16.02818,-0.418923 c 0.0127,-0.308226 0.0754,-0.370919 0.15985,-0.159853 0.0764,0.190994 0.067,0.4192 -0.0209,0.507119 -0.0879,0.08792 -0.15045,-0.06835 -0.13896,-0.347266 z m -62.706247,-1.05833 c 0.0127,-0.308227 0.07539,-0.37092 0.15985,-0.159854 0.07643,0.190995 0.06703,0.419201 -0.02087,0.507119 -0.08792,0.08792 -0.150453,-0.06835 -0.138965,-0.347265 z m 59.826517,-0.507119 c 0.005,-0.436563 0.0647,-0.583126 0.13178,-0.325694 0.0671,0.257431 0.0627,0.614619 -0.01,0.79375 -0.0725,0.17913 -0.12736,-0.03149 -0.12197,-0.468056 z m -2.06109,-5.754687 -0.50403,-0.595313 0.59532,0.504029 c 0.55944,0.473662 0.71576,0.686596 0.50402,0.686596 -0.0502,0 -0.31809,-0.267891 -0.59531,-0.595312 z m 0.81889,-4.696354 c 0.26339,-0.291042 0.53842,-0.529167 0.61118,-0.529167 0.0728,0 -0.0832,0.238125 -0.3466,0.529167 -0.26339,0.291041 -0.53842,0.529166 -0.61118,0.529166 -0.0728,0 0.0832,-0.238125 0.3466,-0.529166 z m -18.59855,-0.460521 c 0.9759,-0.05076 2.64277,-0.0511 3.70416,-7.94e-4 1.06139,0.05035 0.26293,0.09188 -1.77436,0.0923 -2.03729,5.29e-4 -2.9057,-0.04078 -1.9298,-0.09154 z M 80.174996,64.867863 c 0,-0.05494 0.20836,-0.2633 0.463021,-0.46302 0.419645,-0.329108 0.429003,-0.319749 0.0999,0.0999 C 80.392274,64.945472 80.175,65.08563 80.175,64.867867 Z m 39.206854,-3.537735 c 2.86435,-0.04268 7.62685,-0.04274 10.58334,-1.3e-4 2.95648,0.04261 0.61293,0.07753 -5.2079,0.0776 -5.82084,7.2e-5 -8.23978,-0.03479 -5.37544,-0.07747 z M 44.125519,61.066079 c 1.63711,-0.04642 4.316016,-0.04642 5.953125,0 1.63711,0.04642 0.297656,0.0844 -2.976563,0.0844 -3.274217,0 -4.613671,-0.03798 -2.976562,-0.0844 z m 23.136377,2.27e-4 c 1.556283,-0.0467 4.175657,-0.04686 5.820833,-2.64e-4 1.645174,0.0465 0.371852,0.0847 -2.829606,0.0849 -3.201459,2.01e-4 -4.547511,-0.03784 -2.991226,-0.08454 z m 68.144874,-2.623774 c 0.1819,-0.0734 0.47955,-0.0734 0.66145,0 0.1819,0.0734 0.0331,0.133453 -0.33073,0.133453 -0.3638,0 -0.51263,-0.06005 -0.33072,-0.133453 z M 60.529685,49.446699 c 0.181902,-0.0734 0.479557,-0.0734 0.661459,0 0.181901,0.0734 0.03307,0.133453 -0.330729,0.133453 -0.363802,0 -0.51263,-0.06005 -0.33073,-0.133453 z m 40.348955,-0.287343 c 2.43748,-0.04366 6.42607,-0.04366 8.86354,0 2.43748,0.04366 0.44318,0.07939 -4.43177,0.07939 -4.87495,0 -6.869242,-0.03572 -4.43177,-0.07939 z"
           id="path341" />
        <path
           style="fill:#aeaeae;stroke-width:0.264583"
           d="m 52.592185,111.62378 c 0.181902,-0.0734 0.479557,-0.0734 0.661459,0 0.181901,0.0734 0.03307,0.13345 -0.330729,0.13345 -0.363802,0 -0.51263,-0.0601 -0.33073,-0.13345 z m -2.364712,-11.11801 c 0.190994,-0.0764 0.419197,-0.067 0.507119,0.0209 0.08792,0.0879 -0.06835,0.15045 -0.347266,0.13896 -0.308226,-0.0127 -0.370919,-0.0754 -0.159853,-0.15985 z m 2.645832,0 c 0.190996,-0.0764 0.419199,-0.067 0.50712,0.0209 0.08792,0.0879 -0.06835,0.15045 -0.347266,0.13896 -0.308226,-0.0127 -0.370919,-0.0754 -0.159853,-0.15985 z M 121.13183,90.435293 c 1.20746,-0.04914 3.11246,-0.04886 4.23333,5.29e-4 1.12088,0.04947 0.13296,0.08968 -2.19537,0.08934 -2.32834,-2.65e-4 -3.24542,-0.04081 -2.03796,-0.08995 z M 35.745886,87.832169 c 0.0127,-0.308226 0.07539,-0.370919 0.159853,-0.159853 0.07643,0.190994 0.06703,0.4192 -0.02089,0.507119 -0.08792,0.08792 -0.150453,-0.06835 -0.138965,-0.347266 z M 146.6063,85.980086 c 0.0127,-0.308227 0.0754,-0.37092 0.15985,-0.159854 0.0764,0.190995 0.067,0.419201 -0.0209,0.507119 -0.0879,0.08792 -0.15045,-0.06835 -0.13896,-0.347265 z M 76.49172,72.486336 c 0.0127,-0.308226 0.07539,-0.370919 0.15985,-0.159853 0.07643,0.190995 0.06703,0.419198 -0.02088,0.507119 -0.08792,0.08792 -0.150453,-0.06835 -0.138965,-0.347266 z m 31.48541,-0.529166 c 0.0127,-0.308227 0.0754,-0.37092 0.15986,-0.159854 0.0764,0.190995 0.067,0.419198 -0.0209,0.507119 -0.0879,0.08792 -0.15045,-0.06835 -0.13896,-0.347265 z M 20.193719,70.326821 c 1.280454,-0.04861 3.304516,-0.04836 4.497918,5.29e-4 1.193401,0.04891 0.145759,0.08868 -2.328095,0.08837 -2.473855,-2.64e-4 -3.450274,-0.04032 -2.169823,-0.08893 z M 143.11208,63.975572 c -0.32911,-0.419645 -0.31975,-0.429003 0.0999,-0.0999 0.44073,0.345644 0.58089,0.562917 0.36313,0.562917 -0.0549,0 -0.2633,-0.208359 -0.46302,-0.463021 z m 2.11666,-1.852083 c -0.3291,-0.419645 -0.31975,-0.429004 0.0999,-0.0999 0.44073,0.345643 0.58089,0.562917 0.36312,0.562917 -0.0549,0 -0.2633,-0.20836 -0.46302,-0.463021 z m -9.82197,-0.770541 c 0.1819,-0.0734 0.47955,-0.0734 0.66145,0 0.1819,0.0734 0.0331,0.133453 -0.33073,0.133453 -0.3638,0 -0.51263,-0.06005 -0.33072,-0.133453 z m -7.01146,-2.932189 c 1.2733,-0.0485 3.3569,-0.0485 4.63021,0 1.2733,0.0485 0.23151,0.08819 -2.31511,0.08819 -2.54661,0 -3.58841,-0.03968 -2.3151,-0.08819 z M 61.604555,49.441187 c 0.190995,-0.07643 0.419197,-0.06703 0.507119,0.02088 0.08792,0.08792 -0.06835,0.150453 -0.347265,0.138964 -0.308228,-0.0127 -0.37092,-0.07539 -0.159854,-0.15985 z m 55.958655,-0.281738 c 2.00961,-0.04501 5.2243,-0.04489 7.14375,2.56e-4 1.91945,0.04515 0.27522,0.08197 -3.65384,0.08183 -3.92906,-1.4e-4 -5.49952,-0.03708 -3.48991,-0.08208 z"
           id="path339" />
        <path
           style="fill:#8f8f8f;stroke-width:0.264583"
           d="m 53.650519,111.62378 c 0.1819,-0.0734 0.479557,-0.0734 0.661458,0 0.181902,0.0734 0.03307,0.13345 -0.330728,0.13345 -0.363803,0 -0.512631,-0.0601 -0.33073,-0.13345 z m 77.787501,-9.26042 c 0.1819,-0.0734 0.47955,-0.0734 0.66145,0 0.1819,0.0734 0.0331,0.13346 -0.33073,0.13346 -0.3638,0 -0.51263,-0.0601 -0.33072,-0.13346 z m -82.004297,-1.85759 c 0.190994,-0.0764 0.419197,-0.067 0.507119,0.0209 0.08792,0.0879 -0.06835,0.15045 -0.347267,0.13896 -0.308225,-0.0127 -0.370919,-0.0754 -0.159852,-0.15985 z m 4.233333,0 c 0.190995,-0.0764 0.419197,-0.067 0.507119,0.0209 0.08792,0.0879 -0.06835,0.15045 -0.347266,0.13896 -0.308226,-0.0127 -0.37092,-0.0754 -0.159853,-0.15985 z m 48.468354,-4.152491 c 0,-0.05494 0.20836,-0.263301 0.46302,-0.463021 0.41965,-0.329108 0.42901,-0.319749 0.0999,0.0999 -0.34564,0.440729 -0.56291,0.580887 -0.56291,0.363125 z M 56.362498,89.738696 c 0,-0.05494 0.20836,-0.263301 0.46302,-0.463021 0.419646,-0.329108 0.429004,-0.319749 0.0999,0.0999 -0.345643,0.440729 -0.562917,0.580887 -0.562917,0.363125 z m 87.333382,-1.112777 c 0.0127,-0.308226 0.0754,-0.370919 0.15985,-0.159853 0.0764,0.190994 0.067,0.4192 -0.0209,0.507119 -0.0879,0.08792 -0.15045,-0.06835 -0.13897,-0.347266 z M 75.478642,86.73074 c 1.564349,-0.04678 4.124193,-0.04678 5.688542,0 1.564349,0.04678 0.284427,0.08505 -2.844271,0.08505 -3.128698,0 -4.40862,-0.03827 -2.844271,-0.08505 z M 48.211995,86.002133 c 0.0054,-0.436562 0.06469,-0.583125 0.131773,-0.325694 0.06708,0.257432 0.06267,0.614619 -0.0098,0.79375 -0.07248,0.179131 -0.127361,-0.03149 -0.121969,-0.468056 z m 30.870918,-6.151562 c -0.329108,-0.419645 -0.319749,-0.429003 0.0999,-0.0999 0.440729,0.345644 0.580887,0.562917 0.363125,0.562917 -0.05494,0 -0.263301,-0.208359 -0.463021,-0.463021 z m 45.861237,-9.522499 c 0.9759,-0.05076 2.64277,-0.0511 3.70417,-7.94e-4 1.06139,0.05035 0.26292,0.09188 -1.77437,0.09229 -2.03729,5.29e-4 -2.9057,-0.04078 -1.9298,-0.09154 z M 62.381769,49.446699 c 0.181901,-0.0734 0.479557,-0.0734 0.661458,0 0.181901,0.0734 0.03307,0.133453 -0.330729,0.133453 -0.363802,0 -0.51263,-0.06005 -0.330729,-0.133453 z"
           id="path337" />
        <path
           style="fill:#6f6f6f;stroke-width:0.264583"
           d="m 54.725388,111.61827 c 0.190995,-0.0764 0.419199,-0.067 0.507119,0.0209 0.08792,0.0879 -0.06835,0.15046 -0.347265,0.13897 -0.308226,-0.0127 -0.370919,-0.0754 -0.159853,-0.15985 z m 75.935412,-9.26042 c 0.191,-0.0764 0.4192,-0.067 0.50712,0.0209 0.0879,0.0879 -0.0683,0.15045 -0.34726,0.13897 -0.30823,-0.0127 -0.37092,-0.0754 -0.15986,-0.15986 z M 97.020135,72.993453 c -0.09701,-0.09701 -0.174567,-0.305372 -0.172339,-0.463021 0.0024,-0.174117 0.08512,-0.159023 0.210561,0.03845 0.149535,0.235392 1.699614,0.346488 5.618343,0.40267 l 5.41184,0.07759 -5.44601,0.06035 c -2.995304,0.03319 -5.525382,-0.01902 -5.622395,-0.116039 z m 34.979445,-1.874131 c -0.32911,-0.419645 -0.31975,-0.429004 0.0999,-0.0999 0.44073,0.345643 0.58089,0.562917 0.36313,0.562917 -0.0549,0 -0.2633,-0.20836 -0.46302,-0.463021 z m 13.30469,-1.653646 c 0,-0.363802 0.06,-0.51263 0.13345,-0.330729 0.0734,0.181901 0.0734,0.479557 0,0.661458 -0.0734,0.181901 -0.13345,0.03307 -0.13345,-0.330729 z M 104.7475,64.240155 c -0.32911,-0.419645 -0.31975,-0.429003 0.0999,-0.0999 0.44073,0.345644 0.58088,0.562917 0.36312,0.562917 -0.0549,0 -0.2633,-0.208359 -0.46302,-0.463021 z M 92.417011,60.286489 c 0.25743,-0.06708 0.614619,-0.06267 0.79375,0.0098 0.179131,0.07248 -0.03149,0.127362 -0.468056,0.12197 -0.436564,-0.0054 -0.583126,-0.06469 -0.325694,-0.131773 z M 63.704685,49.435203 c 0.327421,-0.06307 0.863203,-0.06307 1.190624,0 0.327422,0.06306 0.05953,0.114662 -0.595311,0.114662 -0.654844,0 -0.922735,-0.0516 -0.595313,-0.114662 z"
           id="path335" />
        <path
           style="fill:#545454;stroke-width:0.264583"
           d="m 69.922393,111.60061 c 8.112786,-0.0388 21.388255,-0.0388 29.501041,0 8.112786,0.0388 1.475056,0.0706 -14.75052,0.0706 -16.225572,0 -22.863306,-0.0318 -14.750521,-0.0706 z M 112.00921,99.694527 c 3.32053,-0.04201 8.67834,-0.04196 11.90625,1.06e-4 3.2279,0.04207 0.5111,0.07644 -6.03734,0.07638 -6.54844,-5.8e-5 -9.18945,-0.03448 -5.86891,-0.07649 z m -73.002059,-3.307498 -0.504028,-0.595313 0.595313,0.504029 c 0.559447,0.473662 0.715761,0.686596 0.504028,0.686596 -0.05021,0 -0.318097,-0.26789 -0.595313,-0.595312 z M 23.818749,90.814444 c 0,-0.386183 -0.574255,-0.444045 -5.093229,-0.513178 l -5.093228,-0.07792 5.101532,-0.06008 c 4.390845,-0.05172 5.123359,-0.0032 5.258207,0.348199 0.08617,0.224558 0.08243,0.482526 -0.0083,0.573262 -0.09074,0.09074 -0.164979,-0.03089 -0.164979,-0.270279 z m 48.725106,-2.827936 c 0,-0.363802 0.06006,-0.51263 0.133453,-0.330729 0.0734,0.181901 0.0734,0.479557 0,0.661459 -0.0734,0.181901 -0.133453,0.03307 -0.133453,-0.33073 z M 33.47604,60.99901 c 0.568389,-0.582084 1.092966,-1.058334 1.165727,-1.058334 0.07276,0 -0.332754,0.47625 -0.901143,1.058334 -0.568389,0.582083 -1.092967,1.058333 -1.165727,1.058333 -0.07276,0 0.332754,-0.47625 0.901143,-1.058333 z m 58.02643,-0.709906 c 0.190994,-0.07643 0.4192,-0.06703 0.507119,0.02088 0.08792,0.08792 -0.06835,0.150453 -0.347266,0.138965 -0.308226,-0.0127 -0.370919,-0.07539 -0.159853,-0.159851 z M 67.554135,49.424738 c 1.280452,-0.04861 3.304515,-0.04836 4.497915,5.29e-4 1.193403,0.04891 0.145759,0.08868 -2.328094,0.08837 -2.473855,-2.65e-4 -3.450272,-0.04032 -2.169821,-0.08893 z"
           id="path333" />
        <path
           style="fill:#464646;stroke-width:0.264583"
           d="m 119.53177,102.34084 c 1.92815,-0.0452 5.0833,-0.0452 7.01145,0 1.92816,0.0452 0.35058,0.0822 -3.50572,0.0822 -3.85631,0 -5.43388,-0.037 -3.50573,-0.0822 z m -30.41055,-1.57049 c 0.190995,-0.0764 0.4192,-0.067 0.507119,0.0209 0.08792,0.0879 -0.06835,0.15045 -0.347266,0.13897 -0.308226,-0.0127 -0.370919,-0.0754 -0.159853,-0.15985 z m 52.41708,-19.861445 -0.64143,-0.727605 0.7276,0.641432 c 0.68006,0.599517 0.84894,0.813777 0.64144,0.813777 -0.0474,0 -0.37482,-0.327422 -0.72761,-0.727604 z M 75.73165,49.42599 c 0.9759,-0.05076 2.642775,-0.0511 3.704167,-7.94e-4 1.061391,0.05035 0.262929,0.09188 -1.774361,0.0923 -2.037292,5.29e-4 -2.905705,-0.04078 -1.929806,-0.09154 z"
           id="path331" />
        <path
           style="fill:#323232;stroke-width:0.264583"
           d="M 48.013206,111.14373 C 39.539389,109.98682 33.547167,107.32719 29.321057,102.8473 26.420475,99.772528 24.574203,95.886233 24.138932,91.93923 l -0.18789,-1.703763 -5.122567,-0.07196 c -4.702734,-0.06606 -5.112926,-0.109434 -5.00493,-0.529166 0.0647,-0.251463 1.054562,-4.654159 2.199692,-9.783768 l 2.082057,-9.326562 4.378081,-0.0073 4.378082,-0.0073 0.627333,-1.249505 c 1.334654,-2.658329 3.178289,-5.0708 6.111569,-7.997229 6.417649,-6.402668 13.691569,-9.873763 23.542834,-11.234584 4.485703,-0.619638 70.656797,-0.964866 70.656797,-0.36863 0,0.214166 -0.41671,2.204526 -0.92604,4.423023 -0.50932,2.218497 -0.92604,4.135345 -0.92604,4.259664 0,0.124318 2.7682,0.274934 6.15156,0.334704 5.81803,0.102777 6.26864,0.147378 8.31078,0.822563 5.19773,1.7185 7.52445,4.940818 7.51811,10.41201 -0.004,3.691741 -1.13288,6.587775 -3.31339,8.502289 l -0.97485,0.85593 0.72055,0.85267 c 1.32527,1.568265 2.01585,3.538871 2.1532,6.144334 0.32302,6.127228 -2.76891,11.711569 -7.86596,14.20672 -3.25005,1.591 -4.90962,1.80057 -14.25851,1.80057 -7.57512,0 -8.20607,0.035 -8.33624,0.46302 -0.0774,0.25466 -0.50637,2.12989 -0.95316,4.16719 -0.4468,2.03729 -0.87572,3.91252 -0.95317,4.16718 -0.13317,0.43786 -1.86922,0.4613 -31.939143,0.43125 -23.62991,-0.0236 -32.413846,-0.11581 -34.194481,-0.35892 z m 46.061395,-10.85524 c 6.755049,-1.308084 11.204479,-5.448699 12.104689,-11.264561 0.5645,-3.647006 -0.49733,-7.018758 -2.92567,-9.290184 -1.84871,-1.729251 -3.829644,-2.643376 -9.078509,-4.189368 -4.808193,-1.416201 -5.954283,-1.983081 -6.229963,-3.08148 -0.251637,-1.002596 0.489246,-2.309405 1.611114,-2.841765 1.20201,-0.570391 4.224623,-0.601385 5.528267,-0.05669 1.044221,0.436303 1.759217,1.5737 1.759217,2.798511 v 0.806889 h 5.726914 5.72692 l -0.14976,-1.786265 c -0.30017,-3.580434 -1.99548,-6.50309 -4.90749,-8.46034 -4.810878,-3.233536 -13.824821,-3.52961 -19.545168,-0.641988 -5.627589,2.840797 -8.392895,8.445069 -6.805152,13.791578 1.200944,4.044018 3.763169,5.893181 11.733873,8.468354 4.939808,1.595951 6.103197,2.353371 6.103197,3.973457 0,2.143403 -2.013096,3.479157 -5.291667,3.51119 -3.400853,0.03323 -5.291666,-1.62219 -5.291666,-4.632886 v -0.72935 h -5.820833 -5.820833 l 0.0021,0.727604 c 0.01146,4.166362 2.081408,8.293861 5.266308,10.501 3.77766,2.617914 10.248506,3.568964 16.304215,2.396294 z M 58.611457,99.903092 c 6.987811,-1.917599 11.727243,-7.452677 12.695669,-14.827 0.105109,-0.800365 1.250408,-6.512713 2.545112,-12.694107 1.294704,-6.181394 2.354008,-11.271316 2.354008,-11.310937 0,-0.03962 -2.670884,-0.07204 -5.935294,-0.07204 -5.421712,0 -5.94769,0.04007 -6.078524,0.463021 -0.07878,0.254661 -1.220409,5.70177 -2.536962,12.104686 -2.62313,12.757306 -3.059716,14.128509 -5.037492,15.821414 -2.453222,2.099865 -6.369161,1.90446 -7.54879,-0.376688 -0.993166,-1.920573 -0.846571,-3.283026 1.715265,-15.941724 1.321678,-6.530745 2.40305,-11.920558 2.40305,-11.977362 0,-0.05681 -2.701135,-0.07128 -6.002524,-0.03217 l -6.002519,0.07111 -2.737237,13.096875 c -2.957315,14.149895 -3.053637,14.986015 -2.057431,17.859374 1.458176,4.205822 5.013508,6.997668 10.44971,8.205706 2.604958,0.57887 9.017047,0.36639 11.773959,-0.390164 z m 75.621603,-0.748109 c 6.35522,-1.758757 9.69328,-5.834605 9.70338,-11.848057 0.006,-3.533375 -1.26034,-6.079659 -3.72281,-7.486033 l -1.35226,-0.772308 0.95337,-0.31464 c 1.28343,-0.423569 3.59064,-2.577423 4.44764,-4.152003 0.84804,-1.558128 1.38734,-4.441041 1.15642,-6.181788 -0.42706,-3.219365 -2.12073,-5.188659 -5.58026,-6.488385 -1.21011,-0.454631 -2.36449,-0.50469 -13.53748,-0.587047 -11.58721,-0.08541 -12.22208,-0.06551 -12.3608,0.38744 -0.0804,0.26261 -1.87902,8.682313 -3.99688,18.710449 -2.11786,10.028136 -3.92275,18.520216 -4.01086,18.871286 l -0.16021,0.63831 13.19666,-0.102539 c 12.53977,-0.09744 13.29956,-0.131016 15.26409,-0.674685 z M 119.33333,90.13956 c 0,-0.12551 0.29765,-1.689695 0.66146,-3.475968 0.3638,-1.786274 0.66146,-3.304908 0.66146,-3.374742 0,-0.06983 1.93476,-0.07921 4.29947,-0.02082 3.5671,0.08807 4.4384,0.188746 5.11498,0.59105 1.07575,0.639652 1.46425,1.308907 1.4814,2.551983 0.022,1.590543 -0.76411,2.669654 -2.44263,3.353258 -1.27443,0.519033 -1.92542,0.588126 -5.60895,0.595312 -2.29196,0.0045 -4.16719,-0.09456 -4.16719,-0.22007 z m 2.91042,-14.138721 c 0,-0.0698 0.23812,-1.284219 0.52916,-2.698705 0.29104,-1.414486 0.52917,-2.618216 0.52917,-2.674958 0,-0.05674 1.69664,-0.101413 3.77031,-0.09927 4.15314,0.0043 4.8626,0.192029 5.46373,1.445771 0.54193,1.130242 -0.0529,2.705182 -1.29654,3.432609 -0.80022,0.468077 -1.47429,0.553891 -4.96094,0.63157 -2.21919,0.04944 -4.03489,0.03278 -4.03489,-0.03702 z"
           id="path329" />
      </g>
      <path
         style="opacity:0.99;fill:#000000;stroke-width:1.54697"
         d="m 171.91872,417.59963 c -25.65137,-5.09722 -44.07325,-14.05545 -58.30445,-28.35241 -11.41421,-11.46695 -17.616001,-22.6769 -20.231071,-36.56838 -0.957964,-5.08879 -1.977287,-10.12251 -2.265162,-11.18605 -0.381877,-1.41081 -5.556302,-1.93371 -19.135556,-1.93371 -10.236681,0 -18.612147,-0.35124 -18.612147,-0.78054 0,-0.4293 3.480674,-16.43722 7.734832,-35.57316 4.254157,-19.13594 7.734831,-35.14387 7.734831,-35.57316 0,-0.4293 7.499178,-0.78055 16.664842,-0.78055 h 16.664841 l 3.05898,-5.75579 c 5.36468,-10.09421 20.46199,-27.88851 31.26667,-36.85215 20.10482,-16.67911 39.27017,-25.95894 66.15724,-32.03324 13.26491,-2.99679 20.18999,-3.17814 146.57505,-3.83834 72.9588,-0.38112 132.63729,-0.10848 132.61888,0.60587 -0.0184,0.71435 -1.41069,7.52877 -3.09393,15.14316 -1.68326,7.61438 -3.06046,14.74976 -3.06046,15.8564 0,1.51748 3.89771,2.02381 15.85641,2.05984 31.95674,0.0963 47.91172,4.48855 57.98672,15.96334 6.74639,7.68371 8.62841,14.75917 7.82847,29.43117 -0.74579,13.67901 -3.01749,19.53349 -10.4722,26.98819 l -4.69227,4.69228 5.03384,8.10146 c 4.71897,7.59468 5.03386,8.98274 5.03386,22.19014 0,12.79577 -0.46573,15.03465 -5.07493,24.39678 -6.21802,12.6299 -17.16911,22.9358 -29.4199,27.68661 -7.92517,3.07336 -12.40366,3.49294 -44.13296,4.13484 -24.34503,0.49249 -35.48363,1.25773 -35.86295,2.46382 -0.3026,0.96219 -2.04642,8.53675 -3.87513,16.83236 l -3.32496,15.08292 -124.01705,-0.14542 c -98.07865,-0.11494 -126.23893,-0.58687 -134.64034,-2.25632 z m 52.50597,-40.06358 c 17.83621,-5.35117 34.44739,-20.6431 40.8849,-37.63787 2.16203,-5.70766 23.19961,-104.66306 23.19961,-109.12502 0,-0.57677 -10.10888,-1.04868 -22.46418,-1.04868 -21.83835,0 -22.50427,0.097 -23.90364,3.48068 -0.79171,1.91437 -4.98603,20.53597 -9.32071,41.38134 -9.80015,47.12869 -12.47841,55.64718 -19.4091,61.7324 -6.36281,5.58661 -14.44668,7.4247 -20.89918,4.75198 -6.16152,-2.55218 -7.64993,-5.71713 -7.64993,-16.26677 0,-6.795 11.6464,-71.38202 16.52465,-91.6402 l 0.8481,-3.52193 -23.65554,0.42799 -23.65555,0.428 -9.02954,42.54157 c -5.25634,24.7646 -9.42657,48.6827 -9.97965,57.23775 -0.84867,13.12713 -0.58406,15.47317 2.47838,21.97371 6.17856,13.11499 18.47856,22.22956 36.41387,26.98344 9.75596,2.58589 38.63193,1.59747 49.61751,-1.69839 z m 141.69248,-0.49215 c 19.04563,-6.79472 30.39784,-18.74808 34.81865,-36.66245 2.05217,-8.31598 2.17455,-11.60517 0.70421,-18.92655 -3.74684,-18.65696 -13.27712,-26.53956 -43.70195,-36.14649 -24.66433,-7.78798 -29.68357,-12.6604 -20.49082,-19.89143 4.56872,-3.59375 14.98105,-4.32471 21.20553,-1.48865 3.75232,1.70967 7.20472,7.22242 7.20472,11.50445 0,1.86154 3.82803,2.24766 22.2838,2.24766 h 22.28382 l -0.7632,-6.57461 c -2.46291,-21.21697 -13.99031,-35.08497 -33.71879,-40.56525 -33.62199,-9.33969 -68.30908,1.17412 -82.22708,24.92341 -8.67722,14.80654 -6.07329,36.99145 5.57724,47.517 7.71084,6.96628 9.41071,7.82508 31.63291,15.98136 23.09512,8.47668 25.6495,10.05806 25.6495,15.87922 0,5.61988 -5.53815,10.26231 -13.93462,11.68087 -12.75678,2.15525 -23.19257,-4.20527 -23.19257,-14.13565 v -5.20344 h -23.20449 -23.20449 v 4.36013 c 0,6.37489 4.36139,20.01004 8.49495,26.55802 6.72549,10.65388 16.23024,16.83147 32.49965,21.1231 11.50337,3.03442 40.91707,1.80288 52.08303,-2.1807 z m 147.13885,-3.31058 c 13.0276,-5.08955 21.23137,-11.99417 26.5065,-22.30883 3.85108,-7.53019 4.54975,-10.706 4.57984,-20.8176 0.041,-13.7877 -3.5292,-22.56159 -11.48621,-28.22748 l -4.78466,-3.40698 4.36294,-2.65327 c 6.677,-4.06053 14.06808,-13.26052 15.87207,-19.75666 2.09752,-7.55311 2.09249,-20.69084 -0.009,-26.24001 -2.23539,-5.89789 -7.16963,-10.95192 -14.59388,-14.94743 -5.95985,-3.20742 -7.98342,-3.33013 -54.9173,-3.33013 h -48.72943 l -7.26949,34.03326 c -3.99821,18.71829 -11.03258,51.68372 -15.63192,73.25651 l -8.36244,39.22326 52.75911,-0.66502 c 50.26007,-0.63352 53.18282,-0.83054 61.70415,-4.15962 z"
         id="path675"
         transform="scale(0.26458333)" />
      <path
         style="opacity:0.99;fill:#000000;stroke-width:1.54697"
         d="m 463.31638,285.67327 c 0,-0.70893 0.79224,-5.2338 1.76053,-10.05528 l 1.76053,-8.76632 11.77542,0.1542 c 6.47649,0.0848 13.44989,0.62275 15.49644,1.19541 8.99824,2.51787 8.05911,13.48274 -1.43375,16.73993 -6.1356,2.10525 -29.35917,2.68432 -29.35917,0.73206 z"
         id="path714"
         transform="scale(0.26458333)" />
      <path
         style="opacity:0.99;fill:#000000;stroke-width:1.54697"
         d="m 453.24734,339.53682 c -0.53341,-0.86307 -0.17848,-5.56198 0.78873,-10.44202 3.20465,-16.16904 1.35234,-14.84811 19.11955,-13.63469 18.65866,1.2743 22.64705,3.20895 22.64705,10.98542 0,6.56271 -3.84777,10.77167 -11.88854,13.00448 -7.52802,2.09043 -29.39023,2.15232 -30.66679,0.0868 z"
         id="path753"
         transform="scale(0.26458333)" />
      <path
         style="opacity:0.99;fill:#ffffff;stroke-width:1.54697"
         d="m 349.66977,189.8901 c 0.0305,-0.63812 6.84922,-32.83436 15.15276,-71.54718 l 15.09736,-70.386967 44.53796,-0.410683 c 26.46849,-0.244065 46.88768,0.222031 50.32959,1.148841 7.76552,2.091036 16.44936,8.903836 19.60558,15.38131 2.9954,6.147426 3.11757,18.617701 0.26305,26.852204 -2.2312,6.436428 -12.34406,17.751735 -17.67764,19.779555 -3.6547,1.38951 -5.00015,4.5418 -1.93852,4.5418 3.27624,0 13.7533,12.6484 15.13032,18.26602 1.87073,7.63178 0.94743,21.85581 -1.85389,28.56032 -5.88842,14.09296 -21.53318,24.61034 -40.73862,27.38702 -12.27582,1.7748 -97.99016,2.1493 -97.90795,0.42776 z m 82.70729,-34.51778 c 3.40332,-0.86402 7.18247,-1.77667 8.39809,-2.0281 2.96074,-0.61239 6.501,-11.2232 5.31766,-15.93801 -1.56161,-6.22195 -6.30378,-7.96934 -24.7582,-9.1229 l -17.23031,-1.07705 -1.59895,7.55732 c -3.70033,17.48931 -3.85703,19.45968 -1.6583,20.85224 2.91939,1.84899 23.92684,1.68675 31.53001,-0.2435 z m 7.69341,-53.99791 c 3.38054,-0.78377 7.03525,-2.640546 8.12157,-4.12618 2.32519,-3.179885 2.64653,-13.887991 0.45738,-15.240966 -2.36984,-1.464638 -27.04156,-2.882994 -31.34792,-1.802166 -3.00794,0.754944 -4.06531,2.253094 -4.7928,6.790759 -0.51338,3.202163 -1.38701,8.084554 -1.94141,10.849756 l -1.00799,5.027637 12.18236,-0.0369 c 6.7003,-0.0203 14.94826,-0.67817 18.32881,-1.46193 z"
         id="path887"
         transform="matrix(0.26458333,0,0,0.26458333,13.632292,49.125768)" />
      <path
         style="opacity:0.99;fill:#ffffff;stroke-width:1.54697"
         d="m 263.75774,191.85823 c -23.04678,-5.53277 -36.48919,-19.37936 -39.36142,-40.54494 l -1.11533,-8.21892 h 20.38025 20.38025 l 1.82907,6.10488 c 3.38474,11.29728 13.98736,15.9148 28.88685,12.58044 9.19332,-2.05737 10.72154,-3.36983 12.25019,-10.52062 1.5752,-7.3685 -3.2048,-11.11307 -23.1393,-18.12692 -21.28819,-7.49013 -27.21074,-10.43119 -34.78424,-17.27339 -11.00943,-9.94636 -13.63403,-27.816105 -6.30814,-42.949379 6.72117,-13.884073 24.17391,-25.7313 41.86586,-28.419277 22.55833,-3.427337 45.02964,1.109875 57.23375,11.556144 7.63428,6.534657 13.88975,18.721859 13.91159,27.103186 l 0.0151,5.801123 h -19.7998 -19.79979 l -1.89568,-5.242422 c -2.45598,-6.791878 -8.40499,-9.287019 -19.8747,-8.33586 -9.60777,0.796751 -14.43138,4.587579 -14.43138,11.341493 0,5.195671 4.44512,7.654989 26.81938,14.838152 21.0525,6.75883 29.88529,11.96603 36.20513,21.34404 13.77796,20.44511 3.65875,50.8027 -21.15373,63.46108 -14.26272,7.2763 -40.4096,9.75142 -58.11392,5.50119 z"
         id="path926"
         transform="matrix(0.26458333,0,0,0.26458333,13.632292,49.125768)" />
      <path
         style="opacity:0.99;fill:#ffffff;stroke-width:1.54697"
         d="m 123.35723,191.6664 c -11.1599,-2.62746 -16.65571,-5.45312 -24.686552,-12.69257 -8.201593,-7.39338 -13.552758,-18.82749 -13.572424,-29.0009 -0.01248,-6.45672 16.237766,-91.526048 19.367006,-101.385391 0.86332,-2.720088 2.6436,-2.952036 22.65792,-2.952036 h 21.72098 l -0.84531,3.480674 c -0.46492,1.914371 -4.68123,22.980873 -9.36959,46.814449 -6.76743,34.402744 -8.25024,44.548834 -7.19463,49.229284 1.59328,7.06436 5.01058,11.16753 10.61337,12.74351 5.09028,1.43182 7.01598,1.20073 15.3684,-1.8443 11.58696,-4.22425 13.89595,-10.35072 25.8754,-68.655529 3.93331,-19.143707 7.79524,-36.373043 8.58206,-38.287414 1.38496,-3.369659 2.1039,-3.480674 22.54117,-3.480674 h 21.11058 l -0.90217,4.254157 c -0.49619,2.339787 -5.05996,24.639648 -10.14171,49.555248 -5.08174,24.915602 -10.33451,48.584182 -11.67281,52.596852 -5.24873,15.73747 -21.1412,31.11998 -38.47323,37.2387 -12.13006,4.28228 -37.8175,5.48452 -50.97846,2.38594 z"
         id="path965"
         transform="matrix(0.26458333,0,0,0.26458333,13.632292,49.125768)" />
    </g>
  </g>
</svg>
